<svg version="1.0" xmlns="http://www.w3.org/2000/svg" width="326.667" height="326.667" viewBox="0 0 245 245"><path d="M95.5 6c-8.3 2.1-18.4 5.8-24 8.7-16.2 8.4-20.6 11.1-27.6 16.6-4.3 3.4-10.1 7.8-12.8 9.7-6.3 4.4-12.2 13.9-12.6 20.2-.2 3.8-1.9 8.1-5.4 13.8-.6.8-1.7 4.5-2.7 8.2C9.5 87 8.3 90 7.8 90s-.7.4-.3 1c.9 1.5-.6 6.1-1.9 5.3-.8-.4-.8-.3 0 .6.8.8.8 2.5.2 5.4-2.6 11.5-2.4 36.2.3 42.9.6 1.4 1.1 4.8 1.2 7.5.1 2.9.9 5.5 1.9 6.7 1 1.1 1.7 2.9 1.7 4-.1 3.7.8 6.1 2.2 5.8.8-.2 1.1 0 .7.4-.4.4.1 1.9 1.2 3.4 1.1 1.5 2.3 4.6 2.9 6.9.5 2.3 1.6 5 2.4 5.9 1.5 1.6 4 7.2 3.7 8.1-.1.2.6.8 1.5 1.3 1.2.7 1.3 1.3.5 2.3-.8.9-.8 1.5 0 2 .5.3 1 1.1 1 1.6 0 .6-.6.7-1.2.3-.9-.6-.9-.3 0 .9.8.9 1.2 2 .9 2.4-.2.4 0 1.7.4 2.8.9 1.8.9 1.8.5-.2-.2-1.3 0-2.6.6-2.9.6-.4.5-1-.3-1.5-1.2-.7-1.2-.9 0-.9 1.1 0 1-.5-.4-2-1.6-1.8-1.6-2-.2-2 1 0 1.6.3 1.5.7-.1.5 1 2.1 2.5 3.7 1.4 1.6 2.3 3.4 1.9 4-.3.6-.7 1.4-.7 1.8 0 1.8-1.5 1.8-1.5.1 0-1.2.3-2.3.8-2.6.4-.2.2-.3-.4-.1-.7.1-1-.5-.7-1.7.3-1 .1-1.9-.4-1.9-.4 0-.8 1.8-.8 4s.3 4 .8 4c.4 0 .6.4.2.9-.3.5-.1 1.2.5 1.6.6.4.8 1.1.5 1.6-.4.5-.1.9.4.9.6 0 1.1-.5 1.1-1.1 0-.5.4-.7 1-.4.6.4.7-.1.3-1.1-.5-1.3-.3-1.5.7-.9.8.5 1.1.4.7-.2-.4-.6 0-1.3.8-1.6.8-.4 1.6.2 2 1.4.4 1 1 1.7 1.4 1.5.4-.3 1.3-.1 2 .3.9.6 1 1.1.2 1.5-.5.4-1.9-.2-3.1-1.4-1.1-1.1-2-1.6-2-1.1 0 .6.5 1.3 1 1.6.6.3 1 1.1 1 1.7 0 .7-.4.7-1.3 0-.8-.7-1.8-.7-2.7-.2-1.1.7-1.2 1-.2 1 .8 0 1 .5.6 1.3-.4.6-.4.9.1.5.4-.4 1.4 0 2.2 1 1.2 1.6 1.3 1.6.7-.3-.6-2-.5-2 1-.1.9 1.1 2.2 2.1 2.9 2.2 3.3.5 4.3 1.1 5.4 2.9.9 1.4 1.2 1.6 1.3.5 0-.9.3-1.1.8-.5.4.5 1.7 1.8 2.9 2.8 1.6 1.4 2.3 1.5 2.9.6.4-.7.3-1-.4-.5-.6.3-1.3.2-1.7-.4-.3-.5 0-1 .7-1 1 0 .9-.3-.2-.9-.8-.6-1.8-.7-2.2-.5-.5.3-1.1-.2-1.4-1.1-.6-1.3-.9-1.4-1.6-.3-.6.9-.7.5-.3-1.2.5-1.9.4-2.2-.4-1-.7.9-1.1 1-1.1.3 0-.6-1-1.5-2.1-1.8-1.7-.6-1.9-.9-.8-1.7 1.2-.8 1.1-.9-.1-.5-.8.2-1.6.9-1.6 1.5-.3 2.5-.5 2.7-1.4 1.2-1-1.6.5-4 2.5-4 .7 0 2.7 1.3 4.4 2.9 1.7 1.6 3.1 2.6 3.1 2.3 0-.3 1.5.9 3.3 2.8 1.9 1.9 4 3.6 4.8 3.8.8.2 1.6.7 1.9 1.2.7 1.2 6.2 3.4 7.8 3.1.6-.1 1.2.3 1.2.8 0 1.1-2.9.7-6.2-.9-2.2-1.1-2.2-1-.4.4 1.7 1.4 1.7 1.6.4 1.6-.9 0-2-.4-2.3-1-.8-1.3-2.5-1.3-2.5 0 0 .6.6.9 1.3.8.6-.2 1.1.2 1 .8-.2 1.3 4.5 1.3 6.5 0 .9-.6 1.2-.3 1 .9-.2 1.1.4 1.9 1.5 2 .9.2 1.5-.1 1.1-.6-.3-.5.2-.9 1.1-.9.9 0 1.3.5 1 1-.6.9.8 1.4 2.8 1.1.4 0 .7.4.7 1 0 .5.4.8.9.4.5-.3 1.6.2 2.4 1 2 1.9 3.3 2 1.7 0-.9-1.1-.9-1.5-.1-1.5.6 0 1.7 1.1 2.3 2.5.6 1.4 1.5 2.5 1.9 2.5 1.5 0-1.7-5-3.9-6-1.5-.6-2.1-.7-1.7 0 .3.5.1 1-.4 1-.6 0-1.1-.8-1.1-1.8 0-.9-.4-1.3-.8-.7-.9 1.3-3.2 1.7-3.2.6 0-.5.3-1.1.8-1.4.4-.2.1-.2-.5-.1-.7.2-1.3-.1-1.3-.7s-.7-.6-2 .1c-1.4.8-2 .8-2 0 0-2 2.9-2.1 7.2-.2 2.4 1 4.9 1.7 5.7 1.4.9-.3 1.1 0 .6.8-.5.9-.2 1 1.4.5 1.7-.5 2-.3 1.4 1.2-.6 1.5-.4 1.6.8.6.9-.7 2-.8 2.9-.3.8.5 1.7.7 2.1.4.4-.2.9.3 1.3 1.1.3.8-.3 1.9-1.2 2.4-1.6 1-1.6 1 .1 1.1 1.1 0 1.5.4 1.1 1.2-.4.7-.3.8.4.4.6-.4.9-1.3.5-2.1-.3-1.1-.1-1.3 1-.9.8.3 1.8.1 2.2-.5.3-.6 1.6-.9 2.8-.6 3.4.7 7.8 1.5 12.2 2.1 2.2.3 4.3 1 4.6 1.6.5.7.8.7 1-.1.2-.6 2.1-1.3 4.2-1.6 3.1-.5 3.7-.3 3.8 1.2 0 1 .3 1.3.6.5.2-.6.9-1.2 1.4-1.2.6 0 .8.4.5.8-.2.4 1.1.8 2.9.8 1.9 0 3.1-.4 2.8-1-.4-.5.1-.7 1-.3 1 .4 1.7.1 1.7-.5s.3-.9.6-.5c.4.3 1.9 0 3.4-.8s3-1.1 3.4-.8c.3.4.6 0 .6-.7 0-.9.5-.7 1.4.6 1.2 1.6 1.7 1.7 2.8.6 1.1-1.1 1-1.2-.6-.6-1.3.5-1.7.4-1.2-.4 1-1.7 3.3-1.5 4 .4.4.9.4 1.9.1 2.2-.3.3-.5.2-.5-.2s-.9-.2-1.9.4c-1.5.7-2.2.7-2.8-.4-.7-1.1-1.1-1-2.5.3-1.5 1.5-1.3 1.6 2.3 1.6 2.1.1 3.9-.3 3.9-.8s.7-.4 1.5.3 1.6.9 1.6.4c.2-1.2.5-2.7.9-3.7.1-.4.3-1.3.4-2 .1-.6.9-1.1 1.9-1.1.9.1 1.7-.2 1.7-.6 0-1 5.8-2.5 7.9-2.1.7.1 1-.2.6-.8-.4-.7 0-.8 1.1-.4 1.3.5 1.5.3.9-.7-.5-.9-.4-1.1.4-.6.6.4 1.4 0 1.7-.8.8-2 1.8-2 3.9.1 1.3 1.2 1.9 1.3 2.5.4.5-1 .9-.9 1.3.3.4.9.3 1.7-.1 1.7-5.2.8-7.2.7-7.2-.4-.1-.6-.6-.3-1.3.8-.7 1.1-2.2 2.1-3.4 2.1-1.3.1-2-.3-1.6-.9.3-.6.1-.7-.5-.3-.6.4-.9 1.2-.6 1.9.3.8-.6 1.3-2.3 1.5-1.6.1-3 .7-3.2 1.3-.1.5-.8.3-1.5-.6-.9-1.3-1.1-1-1.2 1.9 0 1.9.3 3.3.7 3 .5-.2.5-1.2.2-2.2-.6-1.5-.5-1.5 1-.3 1.6 1.2 2.2.8 1.8-1.2-.1-.5.7-.6 1.8-.2 1.1.3 2.3.1 2.6-.6.6-.8 1-.7 1.7.2.6 1 .7.6.2-1.1l-.7-2.5 2.2 2c1.3 1.1 2.2 1.5 2.1 1-.5-2.1.1-2.9 1-1.5.7 1.1 1 1.1 1 .2 0-.7.5-1 1.2-.6s.8.3.4-.4-.3-1.2.3-1.2c.5 0 1.2.6 1.4 1.2.4 1 .6 1 .6 0 .1-.7.6-1 1.1-.7.6.3 1 .1 1-.5 0-.7.7-.9 1.6-.6 1 .4 1.3.2.8-.6-.5-.7-.2-.9.9-.5 1.2.4 1.4.2 1-1-.4-1.1-.3-1.4.5-.9.7.4 1.5.1 1.8-.8.3-.9 1.1-1.3 1.7-.9.6.4.7.1.2-.7-.5-.9-.1-1.1 1.6-.6 1.3.3 1.8.3 1 0-1-.5-.8-1 1-2 2.3-1.3 2.3-1.3-1-.9-1.8.2-3.6.6-3.9.9-.3.3-1.1.1-1.8-.5-1-.8-1.6-.5-2.4 1.3-1.1 2.4-4.5 3.5-5.5 1.7-.4-.5-.1-.9.5-.9s3.2-1.4 5.8-3.2c2.6-1.8 4.1-2.4 3.3-1.5-1.2 1.5-1.2 1.7.3 1.1.9-.3 1.6-1.6 1.6-2.8 0-1.6.2-1.8.9-.6.6.8.7 1.8.5 2.2-.3.4 0 .8.7.8.6 0 .9-.8.6-1.9-.6-2.4-.3-2.8 6.3-7.8 5.5-4.2 9.8-8.4 16.2-15.6 3.1-3.6 3.5-3.7 6.5-2.7 2.1.8 3 1.6 2.6 2.6-.4 1.2-.7 1.2-1.8-.2-.9-1.3-1.4-1.4-1.9-.5-.6.9-1.1.9-2.4-.1-1.3-1.1-1.4-1.1-.7.2 1.5 2.5 1.5 4.2-.1 3.6-.9-.3-1.2-.1-.9.4.3.6.1 1-.4 1-.6 0-1.1-.8-1.1-1.8-.1-1.6-.1-1.6-1.1.1-1.4 2.3-.5 3.5 2.6 3.2 1.4-.2 2.7.1 3.1.6.5.8-1 1.3-3 1-.5-.1-1.2.3-1.6 1-.5.8-1 .5-1.5-1-.3-1.2-1.1-1.8-1.7-1.5-.7.4-.6.9.2 1.4.8.5.7.9-.5 1.3-.9.4-1.3.3-1-.3.3-.6.1-1-.5-1s-.9.8-.6 1.8c.4 1-.1 2.7-1 3.8-1.3 1.6-1.5 1.6-1 .2.3-1 0-2-.7-2.4-.7-.4-.9-.3-.4.1.9 1.1-2.1 4.5-3.6 4.1-.7-.2-.9-.1-.5.1.9.5-1.4 4.3-2.5 4.3-.5 0-.6-.8-.3-1.8.6-1.6.5-1.6-.7 0-.8 1-1.7 1.5-2.1 1.1-.4-.4-.4 0-.1.8.3.9-.1 2.2-1 2.9-2.1 1.8-1.9 2.7.9 3.2 1.8.4 2.3.1 1.8-1-.3-.9-.1-1.3.5-.9.5.3 1 0 1-.8s-.4-1.5-.9-1.5c-.4 0-.8-.4-.8-.8s.9-.8 2-.8c1.5 0 1.9.5 1.4 2.1-.4 1.3-.3 1.7.4 1 .5-.6 1.2-1.9 1.5-3 .4-1.9.5-1.8 1.4.4l1 2.5.6-2.4c.3-1.3.2-3.2-.4-4.2-.6-1.2-.6-1.8 0-1.8s1.5.9 2.1 2c.6 1.1 1.6 2 2.3 1.9.9 0 .9-.2 0-.6-.7-.2-1.3-.9-1.3-1.5s.7-.7 1.6-.4c1 .4 1.3.2.8-.6s-.1-.9 1.2-.4c1 .4 1.6.4 1.2.1-.7-.7 4.4-6.1 5.5-5.7.4.1.8-.2.8-.8.1-.5.2-1.4.3-1.8.2-1.6 5.4-7.1 6.1-6.4.4.4.6.2.5-.3-.5-2.1 0-3.5 1.1-3.3.6.2 1.3-1 1.4-2.5.3-2.1 0-2.7-1.2-2.5-.9.2-1.8-.2-1.9-.7-.2-.6 1-1 2.6-1 2.2-.1 2.9.3 2.5 1.3-1 2.7 1.3.1 2.5-2.7.7-1.7 1.5-3 1.9-2.9 2.1.2 2.2-.5.2-2.6-1.2-1.3-2.2-3.2-2.2-4.2 0-5.1 1.3-11 3.4-15.2 1.5-3.1 2.4-6.8 2.6-10.7.1-3.3.8-6.7 1.5-7.5.8-.9 1.2-4.1 1.2-8.2-.1-3.6.3-6.4.7-6.1.5.3.6-.5.3-1.8-.6-2.1-.5-2.1.4-.6.6.9 1.6 1.4 2.2 1.1.8-.5.9-.1.5 1-.4 1-.7 2.1-.7 2.4 0 .4-.5 0-1.1-.8-.9-1.3-1-1.2-.5.3.3.9 0 1.7-.6 1.7s-.9.3-.5.6c1.4 1.4 4.3-2.2 4.3-5.4 0-3-.1-3.2-1.3-1.6-1 1.4-1.3 1.5-1.3.3 0-.8.5-2 1.2-2.7.9-.9.9-1.5 0-2.4-1.6-1.6-1.5-3.3.1-1.9 1 .8 1.4.7 1.4-.4 0-.7-.5-1.3-1-1.2-.5.1-1.2-.4-1.4-1.1-.3-.7.1-1.1.7-1 .7.2 1.4-.5 1.5-1.5.3-1.5.1-1.6-1.1-.6-1.8 1.5-1.8.4.2-2.6 1.4-2.2 1.4-2.4-.4-3.4-1.1-.6-2.2-.7-2.6-.4-.3.3-.6.2-.6-.4 0-.6.7-1.4 1.6-1.7 2.3-.9 2.6-.8 1.8.6-.4.7-.3 1 .1.5.5-.4.9-1.8 1-3.1 0-1.7-.4-2.2-1.5-1.8-1.3.5-1.3.4-.1-1.2 1.3-1.5 1.3-1.9.1-2.6-.8-.5-1.8-.6-2.4-.3-.5.4-.7-.1-.3-1.1.4-1 .3-1.5-.3-1.1-.6.3-1-.1-1-.9s-.8-2-1.8-2.5c-.9-.5-2.3-2.6-3.1-4.8-.7-2.1-2.7-6.7-4.4-10.3-1.7-3.6-3-6.9-2.9-7.3.1-.4-1-.6-2.5-.3-1.6.2-4.3.5-6.2.5-3.2.1-3.3.2-2.7 3.5.6 3.2.4 3.5-2.7 4.5-1.9.7-4 .9-4.8.7-1.5-.6-6-1.5-9.6-2-1.2-.2-3.7-1.9-5.6-4-1.9-2-4.4-3.6-5.5-3.6-1.8 0-2.2-.8-2.8-4.9-.5-4.2-1.1-5.1-3.5-6.1-2-.9-3.6-.9-6.1-.1-6.2 2-7.4 8.2-2 10.2l2.6 1-2.4 1.2c-1.4.7-2.7 2.6-3.2 4.5-.6 2.3-1.4 3.2-2.3 2.8-.8-.3-2.1.2-2.9 1-1.5 1.4-6.6 1-6.6-.5 0-.4-1-.7-2.2-.8-5.5-.5-15.8-18.2-11.5-19.9.9-.3 1.4-2.5 1.5-6.9 0-6.3 0-6.5-4.1-10.2-2.3-2-4.9-5.3-5.8-7.3-1.9-4.2-2.4-12-.9-12 .6 0 .8-.5.5-1-.3-.6.1-1.3 1-1.6.8-.4 1.4-1.1 1.3-1.8-.1-.6 1-2.3 2.5-3.9 3.5-3.5 3.2-5.7-1.3-7.9-5-2.6-32.4-2.4-42.5.2zm34.3 83.2c.6.1 1.2.5 1.2 1s.4.7.9.3c.5-.3 1.7.2 2.6 1.1 1.2 1.3 1.3 1.9.4 3s-.9 1.8-.1 2.6c.7.7.8 1.7.2 2.8-1.2 2.3.3 4.3 3.7 4.5 1.5.2 3.3.4 3.8.4.6.1.3.6-.5 1.2-1.3.9-1.2 1 .2.5 1-.3 2.2.2 2.8 1.2 1.1 1.6 1.1 1.6.6-.1-.5-1.5.5-2.2 2.7-1.8.4.1.3-.8-.3-2-.9-1.5-1.5-1.8-2.5-.9-.9.8-1.5.8-2 0-.3-.5 0-1 .7-1.1 1 0 1-.2-.1-.6-1.1-.5-1.1-.7 0-1.5 1-.7.8-.8-.8-.5-1.2.3-2.2.2-2.1-.2.1-.3-.2-1.4-.7-2.4-.6-1.5-1-1.6-1.6-.6-.5.8-.2 2.1.8 3.1.9 1 1.2 1.8.6 1.8-.5 0-1.8-.9-2.7-1.9-1.3-1.5-1.4-2-.4-2.4.8-.4.9-.8.3-1.4-1-.8-1.8-3.3-1.1-3.3.6 0 9.1 7.2 8.9 7.6-.1.2 1.1 1.7 2.8 3.5 2.5 2.6 2.7 3.4 1.7 4.7-1.1 1.3-1 1.5.6.9 1.5-.6 1.7-.5.8.6-.7.8-.9 1.7-.5 2 1 1-1 .8-2.7-.3-.8-.5-1-1-.4-1s1.1-.7 1.1-1.5c0-2.1-1.4-1.9-2 .4-.7 2.7 1 5.1 3.1 4.4 1.4-.5 1.5-.4.6.8-1.2 1.4-1.5 4.9-.5 4.6 1.4-.5 4.6 4.1 4.9 7 .8 7.5-9.1 21.4-18.9 26.8-5.1 2.8-6.1 3-16.4 3-12.8 0-17.1-1.6-24.1-9-6.6-6.9-8.7-12.2-8.7-22.2 0-5.5.4-8.8 1.2-9.2.7-.5 1.1-1.2 1-1.7-.1-.5-.1-1.5 0-2.3.1-1.1.4-1.1 1.8 0 1.5 1.3 1.5 1.2.3-1.1-.9-1.7-1-2.5-.1-2.8.6-.2.8-.9.5-1.4-.5-.7-.2-.8.5-.3.9.5.9 1.1.3 1.7-.7.7-.6 1.5.3 2.4 1.5 1.5 2.6 1.8 2.3.6-.5-1.3 2.8-5.2 3.7-4.4.5.4.5.1.1-.5-.4-.8.2-1.7 1.8-2.5 1.4-.6 2.6-1.8 2.6-2.7 0-1.4.2-1.4 1-.1.9 1.3 1 1.3 1 0 0-.9.3-1.1.8-.5.4.5 1.5 1.1 2.6 1.2 1.1.1 1.5-.2.9-.8-.6-.6-2-1.1-3.2-1.2-1.1-.1-2.1-.2-2.1-.3 0-1.2 1.4-3.4 2.2-3.4.5 0 .7.4.3.9-1.1 1.9 1.7 2.3 3.1.5 1.5-1.8 1.5-1.8 1.1.3-.3 1.3.2 2.7 1.2 3.5 1.4 1.2 1.5 1.1.2-.5-1.7-2.2-.3-2.2 2.1 0 1.8 1.6 1.8 1.6 1.2-.3-.7-1.7-.6-1.8 1.1-.4 1.2 1 1.6 1 1.1.2-.6-1-.1-1.1 1.8-.6 1.6.4 2.6.2 2.6-.5 0-.6-.8-.8-1.7-.4-1.6.6-1.6.5-.4-1 1.2-1.5 1.5-1.5 4.1 1 2.8 2.6 6.6 4.1 5.4 2.1-.4-.6-.1-.9.7-.6.8.3 1.3 1.2 1.1 2.2-.2.9.1 1.6.6 1.6.9 0 1.1-.7 1.3-6 .2-6 0-6.5-1.3-5.2-1.4 1.4-3.2 1.6-2.3.3.3-.6-.5-1.5-1.7-2.1-2.2-1.1-2.2-1-.4.4 1.5 1.2 1.6 1.6.5 1.7-1 0-1 .2-.1.6.6.2 1 .9.7 1.3-.8 1.4-3.4 0-2.9-1.4.3-.7-.3-1.9-1.2-2.7-1-.8-1.5-.9-1.1-.2.4.6-.1 1.8-1.3 2.6-1.1.7-1.8 1.6-1.5 1.9.3.3-.2 1.1-1.2 1.9-1.5 1.2-1.6 1.2-1-.5.4-1 .2-2.5-.4-3.2-.8-1-.8-1.4 0-1.4.6 0 1-.3 1-.8-.3-2 .5-2.1 10.9-1zm-13.1 1.2c-.3.7-.1 1.8.4 2.3.6.6.6 1.9.1 3.3-.6 1.7-1.1 2-1.7 1.1-.4-.8-.2-1.7.6-2.2 1.2-.8 1.2-1 0-1.8-.8-.5-1-1.4-.6-2.1.5-.9.4-1.1-.3-.6-.7.4-1.2.2-1.2-.3 0-.6.7-1.1 1.6-1.1 1 0 1.4.6 1.1 1.4zm-3.1.8c1 1.7 1.2 6.8.3 6.8-.5 0-1.3-1-2-2.2-1-1.8-.9-2 .5-1.5 1 .4 1.5.3 1.2-.2-.9-1.4-4.3-1.9-5.7-.9-1.1.8-1 .9.4.4 2.1-.7 2.2.7.1 2.4-1.2 1.1-1.5 1.1-1.2 0 .7-3.1-2.3-1.7-4.2 1.9-1.1 2.3-2.4 4.1-2.9 4.1s-1.7.7-2.6 1.6c-.9.9-1.9 1.3-2.3 1-.3-.4-.2-1 .3-1.4 1.1-.7 1.8-3.2 1-3.2-.2 0-.9.9-1.5 2.1-.8 1.4-.8 2.4-.1 3.3.8 1 .8 1.6-.2 2.5-1.1.9-1.4.5-1.5-2.1-.1-3.4 1-5.3 3.9-6.9 1.5-.7 1.7-.6 1.4 1-.3 1.4.1 1.8 1.2 1.4 1.2-.5 1.2-.7.1-1.4-.7-.5-.9-.9-.4-.9s.4-.6-.2-1.3c-.7-.8-.6-1.6.4-2.5.8-.7 1.4-1 1.4-.7 0 .4 1.2-.3 2.6-1.4 1.4-1.1 3.2-1.7 4.1-1.4.9.4 1.4.2 1-.3-.3-.5.5-1.1 1.8-1.2 1.3-.1 2.7.4 3.1 1zm10.6 1.7c-.9.5-.6 1.1 1.1 1.8 1.7.8 2.8.7 4.2-.3 1-.8 2.4-1.4 2.9-1.4.7 0 .8.3.1.8-.5.4-1 1.4-1 2.2 0 .8.5 1.9 1 2.3.6.5 0 .6-1.2.2-1.2-.3-2.4-.1-2.8.5-.4.6-1.9-.2-3.7-1.9-2.7-2.5-3-3.2-1.8-4.5.7-.9 1.5-1.4 1.9-1.1.3.3 0 1-.7 1.4zm112.8 3c0 1.7 2.8 5 3.7 4.3.1-.1.2.1.1.5-.2.5-.8.8-1.3.7-.6-.1-1.1.9-1.1 2.1 0 1.5.5 2.1 1.4 1.8 1.1-.5 1.1-.7 0-1.4-.9-.6-.9-.9-.1-.9 2.2 0 2.4 1.9.3 3-2.4 1.3-2.2 3.2.4 3.6 2.1.3 3.5 1.4 1.7 1.4-.7 0-.9.5-.6 1 .3.6-.1 1.3-1 1.6-1.2.5-1.3.9-.4 2 .8 1 .8 1.4 0 1.4-.6 0-1.1-.3-1.2-.8 0-.4-.2-1.5-.4-2.4-.2-1.2.2-1.5 1.3-1.1 1.3.3 1.2.1-.3-1.1-1.3-1.1-2-3-2.1-5.4 0-2.1-.4-4.4-.8-5.1-.5-.7-.6-1.5-.3-1.8.3-.3.2-1.6-.3-2.9-.6-1.5-.6-2.4 0-2.4s1 .8 1 1.9zm-95.4 5.5c1-.4 1.6-.4 1.2.1-.4.4-.3 1.4.3 2.2.9 1 1.5 1 2.5.2.9-.7 1.4-.8 1.4-.1 0 1.7-2.5 2.1-4.4.7-1-.8-2.6-1.2-3.6-1-1 .2-2.4-.3-3.1-1.1-.9-1.1-.9-1.4 0-1.4.7 0 .9-.5.5-1.3-.4-.6.2-.4 1.3.6 1.3 1.1 2.7 1.5 3.9 1.1zm11.6 10.3v3.6c-.1 1 .3 1.5.8 1.2.6-.3 1-.1 1 .4 0 .6-.6 1.1-1.2 1.1-.9 0-.8.3.2 1 .8.5 1.1 1.2.7 1.6-.8.8-4.2-3.4-4.2-5.1 0-.6.6-.9 1.3-.7.9.2 1.1-.2.6-1-1.2-1.9-1.4-3.8-.3-3.8.5 0 1 .8 1.1 1.7zm87.3 7.2c.3.5.1 1.2-.5 1.6-.5.3-1-.1-1-.9 0-1.8.6-2.1 1.5-.7zm1 5.1c0 .7-.7 1.4-1.6 1.5-1.2.2-1.5-.3-1.2-1.6.6-2.2 2.8-2 2.8.1zm-8.9 60.2c.4.7.3.8-.4.4-.6-.4-1.8.5-2.7 2.1-.9 1.5-1.4 2-1.1 1 .3-.9.1-1.7-.4-1.7-.6 0-1 .8-1 1.7 0 1.5-.2 1.6-.9.3-.6-.8-.8-1.7-.6-2 .2-.4-.2-.7-1-.7-1.1 0-1.2.4-.3 1.4.6.7.8 1.7.4 2-.4.4-1.1.2-1.5-.6-.6-1-1-.9-1.5.4-.6 1.8 1.1 4.8 2.3 4.1.4-.3.7.4.7 1.4 0 1-.4 1.7-.8 1.4-.4-.2-1.1.3-1.6 1.2-.8 1.4-1 1.4-2.5 0-.9-.9-1.9-1.7-2.2-1.6-2.2.1-2.4-.1-1.3-1.4.9-1 1.7-1 3-.3.9.6 1.5 1.5 1.2 1.9-.3.4.3.5 1.2.1 1.1-.4 1.3-.8.6-1.1-.7-.2-1-.8-.7-1.2.3-.5 0-1.2-.6-1.6-.8-.4-.9-.3-.5.4s.2 1.2-.3 1.2c-1.6 0-1.3-1.5.9-5.3 1.8-3 2.5-3.4 5.6-3.2 1.9.1 3.7-.2 4-.7.7-1.1 1.1-1 2 .4zm-15.3 19c-.9 1-1.9 1.6-2.2 1.3-.3-.4.1-1 .9-1.5 1.2-.8 1.2-1 .1-1-1.1 0-1.1-.3-.1-1.5 1-1.3 1.5-1.3 2.1-.3.5.7.1 2-.8 3zM36 208c0 .6-.7 1.3-1.5 1.6-.8.4-1.5 1.3-1.5 2.1s-.5 1.1-1.1.8c-.7-.5-.5-1.3.5-2.4.9-1 1.3-2.1.9-2.4-.3-.4.1-.7 1-.7 1 0 1.7.5 1.7 1zm176 2.1c-.9 1.5-1.5 1.8-2.5.9-1-.8-1.5-.8-2.1.1-.4.8-.3.9.4.5s1.2-.3 1.2.2-1.1 1.4-2.4 2l-2.4 1.1 1.6-3c1.1-2 2.3-2.8 3.4-2.5 1 .2 2.1 0 2.4-.5 1.1-1.8 1.4-.8.4 1.2zm-10 8.4c0 .5-.4.4-.9-.4s-1.4-1-2.2-.5c-1.1.6-1.1.4 0-1 1.1-1.3 1.6-1.4 2.2-.4.5.7.9 1.7.9 2.3zM45.5 220c.3.6-.1.7-.9.4-1.8-.7-2.1-1.4-.7-1.4.6 0 1.3.4 1.6 1zm148 2.9c-.3.6-1.1 1.1-1.7 1.1-.6 0-.6-.6.2-1.5 1.4-1.7 2.6-1.3 1.5.4zm-9 5.3c.4-.4.2.3-.6 1.5-.7 1.2-1.5 2-1.8 1.8-.2-.3-1 0-1.8.6-.9.9-1.3.8-1.3 0 0-.6.5-1.1 1-1.1.6 0 .9-.3.9-.8-.4-2.5.2-3.4 1.4-2.3.8.6 1.7.7 2.2.3zm-31 10.7c.3.5.1 1.2-.5 1.6-.5.3-1-.1-1-.9 0-1.8.6-2.1 1.5-.7zM97 240c0 .5-.4 1-.9 1-.6 0-1.3-.5-1.6-1-.3-.6.1-1 .9-1 .9 0 1.6.4 1.6 1z"/><path d="M119.9 89.8c.9.7 1 1.1.2 1.5-.7.4-.8.5 0 .3 1.5-.2 1.3-2-.3-2.4-1-.3-1-.2.1.6zM150 120.7c0 .6.7 1.6 1.5 2.3 1.2 1 1.3 1.6.3 2.8-.9 1-.9 1.3-.1.9.6-.4 1.4-.1 1.7.5.2.7.4.4.3-.7-.3-2.2-3.7-7.7-3.7-5.8zM102.7 95c-.8 1.1-1.7 1.7-2.1 1.3-.4-.4-.4.1 0 1 .3 1 .7 1.7.8 1.5.1-.2 1-1.5 1.9-3.1 2-3.1 1.5-3.7-.6-.7zM137.5 18.9c-1.1.9-2.2 2.3-2.3 3.1-1 4-1 5-.2 4.5.5-.3 1 .5 1.2 1.7.2 1.5 1.1 2.4 2.6 2.6 1.2.2 2.2 0 2.3-.5.4-4.2.8-5.3 2.2-6.7 2-2 1.4-4-1.6-5.3-1.8-.8-2.7-.7-4.2.6zM142.8 27.7c0 1 0 2.8.1 3.9.1 1.2-.6 2.4-1.4 2.8-1.9.7-1.1 2.6 1.1 2.6.8 0 1.4-.9 1.4-2s.7-2 1.5-2c1.8 0 1.9-.9.5-4.4-1.1-3-2.9-3.4-3.2-.9zM176.4 28.1c-.3.6-.1 1.6.5 2.2.9.9 1.4.8 2.1-.3.9-1.5.4-3-1-3-.5 0-1.2.5-1.6 1.1zM180.6 29.2c-.7 2.7 1.6 5.3 3.8 4.5 1-.4 1.6-1.8 1.6-3.7 0-2.5-.4-3-2.4-3-1.6 0-2.6.7-3 2.2zM155.5 32c-.4.7 0 1.9.9 2.8 1.3 1.3 2 1.4 3.4.6.9-.6 1.7-1.7 1.7-2.5 0-1.7-5-2.4-6-.9zM169.4 37.5c-.8 1.9.2 4.5 1.6 4.5 1.2 0 3-4.1 2.3-5.3-.7-1.3-3.3-.8-3.9.8zM156.5 46c-.8 1.4.3 3 2.1 3 .8 0 1.4-.9 1.4-2 0-2.1-2.4-2.8-3.5-1zM143.4 60.2c.5 2.5 4.1 7.8 5.4 7.8 2 0 2.7-3.1 1.1-4.4-.9-.6-1.8-1.9-2.2-2.9-.7-1.9-4.7-2.4-4.3-.5zM216.6 68.7c-.6 1.4-.5 1.5.5.6.7-.7 1-1.5.7-1.8-.3-.3-.9.2-1.2 1.2zM204 71.6c0 .8-.4 1.3-.9 1-1.2-.8-3.4 2.1-2.6 3.4.9 1.4 4.5 1.3 4.5-.3 0-.6.3-2.2.6-3.5.4-1.3.2-2.2-.5-2.2-.6 0-1.1.7-1.1 1.6zM207.5 72c-2.2 2.5-1.3 5 1.9 5 3 0 4-1.4 3.2-4.6-.8-2.9-2.7-3.1-5.1-.4zM242.6 134.9c-.4.5-.3 1.6 0 2.5.4 1.1.1 1.4-1.4 1.1-1.8-.3-2.2.8-1.2 3.5.1.3.2.9.1 1.3-.1.5.3.6.9.2.8-.5.8-1.1.1-1.9-.6-.7-.8-1.6-.4-2 .4-.4 1.2.3 1.8 1.5 1 1.8 1.2 1.5 1.1-2.5-.1-4.9-.2-5.1-1-3.7zM211.5 200c-.3.5-.1 1 .4 1 .6 0 1.1-.5 1.1-1 0-.6-.2-1-.4-1-.3 0-.8.4-1.1 1zM199.9 212.7c-1.3 1.6-1.2 1.7.4.4 1.6-1.3 2.1-2.1 1.3-2.1-.2 0-1 .8-1.7 1.7zM189.9 220.7c-1.3 1.6-1.2 1.7.4.4 1.6-1.3 2.1-2.1 1.3-2.1-.2 0-1 .8-1.7 1.7zM58.6 228.5c.4.8 1.1 1.5 1.6 1.5.6 0 .5-.6-.2-1.5-.7-.8-1.4-1.5-1.6-1.5-.2 0-.1.7.2 1.5zM55.2 228.9c-1.1.6-1 1 .4 1.5 2 .8 3.2 0 1.8-1.4-.5-.5-1.5-.5-2.2-.1zM171.6 231.9c-.4.5-.2 1.2.3 1.5.5.4 1.2.2 1.5-.3.4-.5.2-1.2-.3-1.5-.5-.4-1.2-.2-1.5.3zM160 237c-.9.6-1 1-.3 1 .6 0 1.5-.5 1.8-1 .8-1.2.4-1.2-1.5 0zM87.6 239.9c-.3.5.6.8 2 .8 1.9 0 2.2-.2 1.3-.8-1.8-1.1-2.6-1.1-3.3 0zM97.1 243.3c-1.1 1.8-1.1 2 0 .9.7-.6 1.7-1.2 2.2-1.2.4 0 .5.6.1 1.2-.6 1-.4 1 .7.1 1.5-1.5 3.3-1.8 2.5-.5-.3.5.1.9.9.9 1.8 0 2-1.6.3-1.9-.7 0-1.7-.2-2.3-.2-.5-.1-1.5-.4-2-.8-.6-.4-1.7.3-2.4 1.5zM139.6 243.3c-1.6 1.2-1.6 1.4-.3 1.4.9 0 1.8-.6 2.1-1.4.7-1.6.4-1.6-1.8 0zM106 244.1c0 .5.5.7 1 .4.6-.3 1-.8 1-1.1 0-.2-.4-.4-1-.4-.5 0-1 .5-1 1.1zM123.5 244c.3.5.8 1 1.1 1 .2 0 .4-.5.4-1 0-.6-.5-1-1.1-1-.5 0-.7.4-.4 1z"/></svg>