<?xml version="1.0" standalone="no"?>
<!DOCTYPE svg PUBLIC "-//W3C//DTD SVG 20010904//EN"
 "http://www.w3.org/TR/2001/REC-SVG-20010904/DTD/svg10.dtd">
<svg version="1.0" xmlns="http://www.w3.org/2000/svg"
 width="245.000000pt" height="245.000000pt" viewBox="0 0 245.000000 245.000000"
 preserveAspectRatio="xMidYMid meet">
<metadata>
Created by potrace 1.14, written by Peter Selinger 2001-2017
</metadata>
<g transform="translate(0.000000,245.000000) scale(0.100000,-0.100000)"
fill="#000000" stroke="none">
<path d="M955 2390 c-83 -21 -184 -58 -240 -87 -162 -84 -206 -111 -276 -166
-43 -34 -101 -78 -128 -97 -63 -44 -122 -139 -126 -202 -2 -38 -19 -81 -54
-138 -6 -8 -17 -45 -27 -82 -9 -38 -21 -68 -26 -68 -5 0 -7 -4 -3 -10 9 -15
-6 -61 -19 -53 -8 4 -8 3 0 -6 8 -8 8 -25 2 -54 -26 -115 -24 -362 3 -429 6
-14 11 -48 12 -75 1 -29 9 -55 19 -67 10 -11 17 -29 17 -40 -1 -37 8 -61 22
-58 8 2 11 0 7 -4 -4 -4 1 -19 12 -34 11 -15 23 -46 29 -69 5 -23 16 -50 24
-59 15 -16 40 -72 37 -81 -1 -2 6 -8 15 -13 12 -7 13 -13 5 -23 -8 -9 -8 -15
0 -20 5 -3 10 -11 10 -16 0 -6 -6 -7 -12 -3 -9 6 -9 3 0 -9 8 -9 12 -20 9 -24
-2 -4 0 -17 4 -28 9 -18 9 -18 5 2 -2 13 0 26 6 29 6 4 5 10 -3 15 -12 7 -12
9 0 9 11 0 10 5 -4 20 -16 18 -16 20 -2 20 10 0 16 -3 15 -7 -1 -5 10 -21 25
-37 14 -16 23 -34 19 -40 -3 -6 -7 -14 -7 -18 0 -18 -15 -18 -15 -1 0 12 3 23
8 26 4 2 2 3 -4 1 -7 -1 -10 5 -7 17 3 10 1 19 -4 19 -4 0 -8 -18 -8 -40 0
-22 3 -40 8 -40 4 0 6 -4 2 -9 -3 -5 -1 -12 5 -16 6 -4 8 -11 5 -16 -4 -5 -1
-9 4 -9 6 0 11 5 11 11 0 5 4 7 10 4 6 -4 7 1 3 11 -5 13 -3 15 7 9 8 -5 11
-4 7 2 -4 6 0 13 8 16 8 4 16 -2 20 -14 4 -10 10 -17 14 -15 4 3 13 1 20 -3 9
-6 10 -11 2 -15 -5 -4 -19 2 -31 14 -11 11 -20 16 -20 11 0 -6 5 -13 10 -16 6
-3 10 -11 10 -17 0 -7 -4 -7 -13 0 -8 7 -18 7 -27 2 -11 -7 -12 -10 -2 -10 8
0 10 -5 6 -13 -4 -6 -4 -9 1 -5 4 4 14 0 22 -10 12 -16 13 -16 7 3 -6 20 -5
20 10 1 9 -11 22 -21 29 -22 33 -5 43 -11 54 -29 9 -14 12 -16 13 -5 0 9 3 11
8 5 4 -5 17 -18 29 -28 16 -14 23 -15 29 -6 4 7 3 10 -4 5 -6 -3 -13 -2 -17 4
-3 5 0 10 7 10 10 0 9 3 -2 9 -8 6 -18 7 -22 5 -5 -3 -11 2 -14 11 -6 13 -9
14 -16 3 -6 -9 -7 -5 -3 12 5 19 4 22 -4 10 -7 -9 -11 -10 -11 -3 0 6 -10 15
-21 18 -17 6 -19 9 -8 17 12 8 11 9 -1 5 -8 -2 -16 -9 -16 -15 -3 -25 -5 -27
-14 -12 -10 16 5 40 25 40 7 0 27 -13 44 -29 17 -16 31 -26 31 -23 0 3 15 -9
33 -28 19 -19 40 -36 48 -38 8 -2 16 -7 19 -12 7 -12 62 -34 78 -31 6 1 12 -3
12 -8 0 -11 -29 -7 -62 9 -22 11 -22 10 -4 -4 17 -14 17 -16 4 -16 -9 0 -20 4
-23 10 -8 13 -25 13 -25 0 0 -6 6 -9 13 -8 6 2 11 -2 10 -8 -2 -13 45 -13 65
0 9 6 12 3 10 -9 -2 -11 4 -19 15 -20 9 -2 15 1 11 6 -3 5 2 9 11 9 9 0 13 -5
10 -10 -6 -9 8 -14 28 -11 4 0 7 -4 7 -10 0 -5 4 -8 9 -4 5 3 16 -2 24 -10 20
-19 33 -20 17 0 -9 11 -9 15 -1 15 6 0 17 -11 23 -25 6 -14 15 -25 19 -25 15
0 -17 50 -39 60 -15 6 -21 7 -17 0 3 -5 1 -10 -4 -10 -6 0 -11 8 -11 18 0 9
-4 13 -8 7 -9 -13 -32 -17 -32 -6 0 5 3 11 8 14 4 2 1 2 -5 1 -7 -2 -13 1 -13
7 0 6 -7 6 -20 -1 -14 -8 -20 -8 -20 0 0 20 29 21 72 2 24 -10 49 -17 57 -14
9 3 11 0 6 -8 -5 -9 -2 -10 14 -5 17 5 20 3 14 -12 -6 -15 -4 -16 8 -6 9 7 20
8 29 3 8 -5 17 -7 21 -4 4 2 9 -3 13 -11 3 -8 -3 -19 -12 -24 -16 -10 -16 -10
1 -11 11 0 15 -4 11 -12 -4 -7 -3 -8 4 -4 6 4 9 13 5 21 -3 11 -1 13 10 9 8
-3 18 -1 22 5 3 6 16 9 28 6 34 -7 78 -15 122 -21 22 -3 43 -10 46 -16 5 -7 8
-7 10 1 2 6 21 13 42 16 31 5 37 3 38 -12 0 -10 3 -13 6 -5 2 6 9 12 14 12 6
0 8 -4 5 -8 -2 -4 11 -8 29 -8 19 0 31 4 28 10 -4 5 1 7 10 3 10 -4 17 -1 17
5 0 6 3 9 6 5 4 -3 19 0 34 8 15 8 30 11 34 8 3 -4 6 0 6 7 0 9 5 7 14 -6 12
-16 17 -17 28 -6 11 11 10 12 -6 6 -13 -5 -17 -4 -12 4 10 17 33 15 40 -4 4
-9 4 -19 1 -22 -3 -3 -5 -2 -5 2 0 4 -9 2 -19 -4 -15 -7 -22 -7 -28 4 -7 11
-11 10 -25 -3 -15 -15 -13 -16 23 -16 21 -1 39 3 39 8 0 5 7 4 15 -3 8 -7 16
-9 16 -4 2 12 5 27 9 37 1 4 3 13 4 20 1 6 9 11 19 11 9 -1 17 2 17 6 0 10 58
25 79 21 7 -1 10 2 6 8 -4 7 0 8 11 4 13 -5 15 -3 9 7 -5 9 -4 11 4 6 6 -4 14
0 17 8 8 20 18 20 39 -1 13 -12 19 -13 25 -4 5 10 9 9 13 -3 4 -9 3 -17 -1
-17 -52 -8 -72 -7 -72 4 -1 6 -6 3 -13 -8 -7 -11 -22 -21 -34 -21 -13 -1 -20
3 -16 9 3 6 1 7 -5 3 -6 -4 -9 -12 -6 -19 3 -8 -6 -13 -23 -15 -16 -1 -30 -7
-32 -13 -1 -5 -8 -3 -15 6 -9 13 -11 10 -12 -19 0 -19 3 -33 7 -30 5 2 5 12 2
22 -6 15 -5 15 10 3 16 -12 22 -8 18 12 -1 5 7 6 18 2 11 -3 23 -1 26 6 6 8
10 7 17 -2 6 -10 7 -6 2 11 l-7 25 22 -20 c13 -11 22 -15 21 -10 -5 21 1 29
10 15 7 -11 10 -11 10 -2 0 7 5 10 12 6 7 -4 8 -3 4 4 -4 7 -3 12 3 12 5 0 12
-6 14 -12 4 -10 6 -10 6 0 1 7 6 10 11 7 6 -3 10 -1 10 5 0 7 7 9 16 6 10 -4
13 -2 8 6 -5 7 -2 9 9 5 12 -4 14 -2 10 10 -4 11 -3 14 5 9 7 -4 15 -1 18 8 3
9 11 13 17 9 6 -4 7 -1 2 7 -5 9 -1 11 16 6 13 -3 18 -3 10 0 -10 5 -8 10 10
20 23 13 23 13 -10 9 -18 -2 -36 -6 -39 -9 -3 -3 -11 -1 -18 5 -10 8 -16 5
-24 -13 -11 -24 -45 -35 -55 -17 -4 5 -1 9 5 9 6 0 32 14 58 32 26 18 41 24
33 15 -12 -15 -12 -17 3 -11 9 3 16 16 16 28 0 16 2 18 9 6 6 -8 7 -18 5 -22
-3 -4 0 -8 7 -8 6 0 9 8 6 19 -6 24 -3 28 63 78 55 42 98 84 162 156 31 36 35
37 65 27 21 -8 30 -16 26 -26 -4 -12 -7 -12 -18 2 -9 13 -14 14 -19 5 -6 -9
-11 -9 -24 1 -13 11 -14 11 -7 -2 15 -25 15 -42 -1 -36 -9 3 -12 1 -9 -4 3 -6
1 -10 -4 -10 -6 0 -11 8 -11 18 -1 16 -1 16 -11 -1 -14 -23 -5 -35 26 -32 14
2 27 -1 31 -6 5 -8 -10 -13 -30 -10 -5 1 -12 -3 -16 -10 -5 -8 -10 -5 -15 10
-3 12 -11 18 -17 15 -7 -4 -6 -9 2 -14 8 -5 7 -9 -5 -13 -9 -4 -13 -3 -10 3 3
6 1 10 -5 10 -6 0 -9 -8 -6 -18 4 -10 -1 -27 -10 -38 -13 -16 -15 -16 -10 -2
3 10 0 20 -7 24 -7 4 -9 3 -4 -1 9 -11 -21 -45 -36 -41 -7 2 -9 1 -5 -1 9 -5
-14 -43 -25 -43 -5 0 -6 8 -3 18 6 16 5 16 -7 0 -8 -10 -17 -15 -21 -11 -4 4
-4 0 -1 -8 3 -9 -1 -22 -10 -29 -21 -18 -19 -27 9 -32 18 -4 23 -1 18 10 -3 9
-1 13 5 9 5 -3 10 0 10 8 0 8 -4 15 -9 15 -4 0 -8 4 -8 8 0 4 9 8 20 8 15 0
19 -5 14 -21 -4 -13 -3 -17 4 -10 5 6 12 19 15 30 4 19 5 18 14 -4 l10 -25 6
24 c3 13 2 32 -4 42 -6 12 -6 18 0 18 6 0 15 -9 21 -20 6 -11 16 -20 23 -19 9
0 9 2 0 6 -7 2 -13 9 -13 15 0 6 7 7 16 4 10 -4 13 -2 8 6 -5 8 -1 9 12 4 10
-4 16 -4 12 -1 -7 7 44 61 55 57 4 -1 8 2 8 8 1 5 2 14 3 18 2 16 54 71 61 64
4 -4 6 -2 5 3 -5 21 0 35 11 33 6 -2 13 10 14 25 3 21 0 27 -12 25 -9 -2 -18
2 -19 7 -2 6 10 10 26 10 22 1 29 -3 25 -13 -10 -27 13 -1 25 27 7 17 15 30
19 29 21 -2 22 5 2 26 -12 13 -22 32 -22 42 0 51 13 110 34 152 15 31 24 68
26 107 1 33 8 67 15 75 8 9 12 41 12 82 -1 36 3 64 7 61 5 -3 6 5 3 18 -6 21
-5 21 4 6 6 -9 16 -14 22 -11 8 5 9 1 5 -10 -4 -10 -7 -21 -7 -24 0 -4 -5 0
-11 8 -9 13 -10 12 -5 -3 3 -9 0 -17 -6 -17 -6 0 -9 -3 -5 -6 14 -14 43 22 43
54 0 30 -1 32 -13 16 -10 -14 -13 -15 -13 -3 0 8 5 20 12 27 9 9 9 15 0 24
-16 16 -15 33 1 19 10 -8 14 -7 14 4 0 7 -5 13 -10 12 -5 -1 -12 4 -14 11 -3
7 1 11 7 10 7 -2 14 5 15 15 3 15 1 16 -11 6 -18 -15 -18 -4 2 26 14 22 14 24
-4 34 -11 6 -22 7 -26 4 -3 -3 -6 -2 -6 4 0 6 7 14 16 17 23 9 26 8 18 -6 -4
-7 -3 -10 1 -5 5 4 9 18 10 31 0 17 -4 22 -15 18 -13 -5 -13 -4 -1 12 13 15
13 19 1 26 -8 5 -18 6 -24 3 -5 -4 -7 1 -3 11 4 10 3 15 -3 11 -6 -3 -10 1
-10 9 0 8 -8 20 -18 25 -9 5 -23 26 -31 48 -7 21 -27 67 -44 103 -17 36 -30
69 -29 73 1 4 -10 6 -25 3 -16 -2 -43 -5 -62 -5 -32 -1 -33 -2 -27 -35 6 -32
4 -35 -27 -45 -19 -7 -40 -9 -48 -7 -15 6 -60 15 -96 20 -12 2 -37 19 -56 40
-19 20 -44 36 -55 36 -18 0 -22 8 -28 49 -5 42 -11 51 -35 61 -20 9 -36 9 -61
1 -62 -20 -74 -82 -20 -102 l26 -10 -24 -12 c-14 -7 -27 -26 -32 -45 -6 -23
-14 -32 -23 -28 -8 3 -21 -2 -29 -10 -15 -14 -66 -10 -66 5 0 4 -10 7 -22 8
-55 5 -158 182 -115 199 9 3 14 25 15 69 0 63 0 65 -41 102 -23 20 -49 53 -58
73 -19 42 -24 120 -9 120 6 0 8 5 5 10 -3 6 1 13 10 16 8 4 14 11 13 18 -1 6
10 23 25 39 35 35 32 57 -13 79 -50 26 -324 24 -425 -2z m343 -832 c6 -1 12
-5 12 -10 0 -5 4 -7 9 -3 5 3 17 -2 26 -11 12 -13 13 -19 4 -30 -9 -11 -9 -18
-1 -26 7 -7 8 -17 2 -28 -12 -23 3 -43 37 -45 15 -2 33 -4 38 -4 6 -1 3 -6 -5
-12 -13 -9 -12 -10 2 -5 10 3 22 -2 28 -12 11 -16 11 -16 6 1 -5 15 5 22 27
18 4 -1 3 8 -3 20 -9 15 -15 18 -25 9 -9 -8 -15 -8 -20 0 -3 5 0 10 7 11 10 0
10 2 -1 6 -11 5 -11 7 0 15 10 7 8 8 -8 5 -12 -3 -22 -2 -21 2 1 3 -2 14 -7
24 -6 15 -10 16 -16 6 -5 -8 -2 -21 8 -31 9 -10 12 -18 6 -18 -5 0 -18 9 -27
19 -13 15 -14 20 -4 24 8 4 9 8 3 14 -10 8 -18 33 -11 33 6 0 91 -72 89 -76
-1 -2 11 -17 28 -35 25 -26 27 -34 17 -47 -11 -13 -10 -15 6 -9 15 6 17 5 8
-6 -7 -8 -9 -17 -5 -20 10 -10 -10 -8 -27 3 -8 5 -10 10 -4 10 6 0 11 7 11 15
0 21 -14 19 -20 -4 -7 -27 10 -51 31 -44 14 5 15 4 6 -8 -12 -14 -15 -49 -5
-46 14 5 46 -41 49 -70 8 -75 -91 -214 -189 -268 -51 -28 -61 -30 -164 -30
-128 0 -171 16 -241 90 -66 69 -87 122 -87 222 0 55 4 88 12 92 7 5 11 12 10
17 -1 5 -1 15 0 23 1 11 4 11 18 0 15 -13 15 -12 3 11 -9 17 -10 25 -1 28 6 2
8 9 5 14 -5 7 -2 8 5 3 9 -5 9 -11 3 -17 -7 -7 -6 -15 3 -24 15 -15 26 -18 23
-6 -5 13 28 52 37 44 5 -4 5 -1 1 5 -4 8 2 17 18 25 14 6 26 18 26 27 0 14 2
14 10 1 9 -13 10 -13 10 0 0 9 3 11 8 5 4 -5 15 -11 26 -12 11 -1 15 2 9 8 -6
6 -20 11 -32 12 -11 1 -21 2 -21 3 0 12 14 34 22 34 5 0 7 -4 3 -9 -11 -19 17
-23 31 -5 15 18 15 18 11 -3 -3 -13 2 -27 12 -35 14 -12 15 -11 2 5 -17 22 -3
22 21 0 18 -16 18 -16 12 3 -7 17 -6 18 11 4 12 -10 16 -10 11 -2 -6 10 -1 11
18 6 16 -4 26 -2 26 5 0 6 -8 8 -17 4 -16 -6 -16 -5 -4 10 12 15 15 15 41 -10
28 -26 66 -41 54 -21 -4 6 -1 9 7 6 8 -3 13 -12 11 -22 -2 -9 1 -16 6 -16 9 0
11 7 13 60 2 60 0 65 -13 52 -14 -14 -32 -16 -23 -3 3 6 -5 15 -17 21 -22 11
-22 10 -4 -4 15 -12 16 -16 5 -17 -10 0 -10 -2 -1 -6 6 -2 10 -9 7 -13 -8 -14
-34 0 -29 14 3 7 -3 19 -12 27 -10 8 -15 9 -11 2 4 -6 -1 -18 -13 -26 -11 -7
-18 -16 -15 -19 3 -3 -2 -11 -12 -19 -15 -12 -16 -12 -10 5 4 10 2 25 -4 32
-8 10 -8 14 0 14 6 0 10 3 10 8 -3 20 5 21 109 10z m-131 -12 c-3 -7 -1 -18 4
-23 6 -6 6 -19 1 -33 -6 -17 -11 -20 -17 -11 -4 8 -2 17 6 22 12 8 12 10 0 18
-8 5 -10 14 -6 21 5 9 4 11 -3 6 -7 -4 -12 -2 -12 3 0 6 7 11 16 11 10 0 14
-6 11 -14z m-31 -8 c10 -17 12 -68 3 -68 -5 0 -13 10 -20 22 -10 18 -9 20 5
15 10 -4 15 -3 12 2 -9 14 -43 19 -57 9 -11 -8 -10 -9 4 -4 21 7 22 -7 1 -24
-12 -11 -15 -11 -12 0 7 31 -23 17 -42 -19 -11 -23 -24 -41 -29 -41 -5 0 -17
-7 -26 -16 -9 -9 -19 -13 -23 -10 -3 4 -2 10 3 14 11 7 18 32 10 32 -2 0 -9
-9 -15 -21 -8 -14 -8 -24 -1 -33 8 -10 8 -16 -2 -25 -11 -9 -14 -5 -15 21 -1
34 10 53 39 69 15 7 17 6 14 -10 -3 -14 1 -18 12 -14 12 5 12 7 1 14 -7 5 -9
9 -4 9 5 0 4 6 -2 13 -7 8 -6 16 4 25 8 7 14 10 14 7 0 -4 12 3 26 14 14 11
32 17 41 14 9 -4 14 -2 10 3 -3 5 5 11 18 12 13 1 27 -4 31 -10z m106 -17 c-9
-5 -6 -11 11 -18 17 -8 28 -7 42 3 10 8 24 14 29 14 7 0 8 -3 1 -8 -5 -4 -10
-14 -10 -22 0 -8 5 -19 10 -23 6 -5 0 -6 -12 -2 -12 3 -24 1 -28 -5 -4 -6 -19
2 -37 19 -27 25 -30 32 -18 45 7 9 15 14 19 11 3 -3 0 -10 -7 -14z m1128 -30
c0 -17 28 -50 37 -43 1 1 2 -1 1 -5 -2 -5 -8 -8 -13 -7 -6 1 -11 -9 -11 -21 0
-15 5 -21 14 -18 11 5 11 7 0 14 -9 6 -9 9 -1 9 22 0 24 -19 3 -30 -24 -13
-22 -32 4 -36 21 -3 35 -14 17 -14 -7 0 -9 -5 -6 -10 3 -6 -1 -13 -10 -16 -12
-5 -13 -9 -4 -20 8 -10 8 -14 0 -14 -6 0 -11 3 -12 8 0 4 -2 15 -4 24 -2 12 2
15 13 11 13 -3 12 -1 -3 11 -13 11 -20 30 -21 54 0 21 -4 44 -8 51 -5 7 -6 15
-3 18 3 3 2 16 -3 29 -6 15 -6 24 0 24 6 0 10 -8 10 -19z m-954 -55 c10 4 16
4 12 -1 -4 -4 -3 -14 3 -22 9 -10 15 -10 25 -2 9 7 14 8 14 1 0 -17 -25 -21
-44 -7 -10 8 -26 12 -36 10 -10 -2 -24 3 -31 11 -9 11 -9 14 0 14 7 0 9 5 5
13 -4 6 2 4 13 -6 13 -11 27 -15 39 -11z m116 -103 c0 -10 0 -26 0 -36 -1 -10
3 -15 8 -12 6 3 10 1 10 -4 0 -6 -6 -11 -12 -11 -9 0 -8 -3 2 -10 8 -5 11 -12
7 -16 -8 -8 -42 34 -42 51 0 6 6 9 13 7 9 -2 11 2 6 10 -12 19 -14 38 -3 38 5
0 10 -8 11 -17z m873 -72 c3 -5 1 -12 -5 -16 -5 -3 -10 1 -10 9 0 18 6 21 15
7z m10 -51 c0 -7 -7 -14 -16 -15 -12 -2 -15 3 -12 16 6 22 28 20 28 -1z m-89
-602 c4 -7 3 -8 -4 -4 -6 4 -18 -5 -27 -21 -9 -15 -14 -20 -11 -10 3 9 1 17
-4 17 -6 0 -10 -8 -10 -17 0 -15 -2 -16 -9 -3 -6 8 -8 17 -6 20 2 4 -2 7 -10
7 -11 0 -12 -4 -3 -14 6 -7 8 -17 4 -20 -4 -4 -11 -2 -15 6 -6 10 -10 9 -15
-4 -6 -18 11 -48 23 -41 4 3 7 -4 7 -14 0 -10 -4 -17 -8 -14 -4 2 -11 -3 -16
-12 -8 -14 -10 -14 -25 0 -9 9 -19 17 -22 16 -22 -1 -24 1 -13 14 9 10 17 10
30 3 9 -6 15 -15 12 -19 -3 -4 3 -5 12 -1 11 4 13 8 6 11 -7 2 -10 8 -7 12 3
5 0 12 -6 16 -8 4 -9 3 -5 -4 4 -7 2 -12 -3 -12 -16 0 -13 15 9 53 18 30 25
34 56 32 19 -1 37 2 40 7 7 11 11 10 20 -4z m-153 -190 c-9 -10 -19 -16 -22
-13 -3 4 1 10 9 15 12 8 12 10 1 10 -11 0 -11 3 -1 15 10 13 15 13 21 3 5 -7
1 -20 -8 -30z m-1813 -48 c0 -6 -7 -13 -15 -16 -8 -4 -15 -13 -15 -21 0 -8 -5
-11 -11 -8 -7 5 -5 13 5 24 9 10 13 21 9 24 -3 4 1 7 10 7 10 0 17 -5 17 -10z
m1760 -21 c-9 -15 -15 -18 -25 -9 -10 8 -15 8 -21 -1 -4 -8 -3 -9 4 -5 7 4 12
3 12 -2 0 -5 -11 -14 -24 -20 l-24 -11 16 30 c11 20 23 28 34 25 10 -2 21 0
24 5 11 18 14 8 4 -12z m-100 -84 c0 -5 -4 -4 -9 4 -5 8 -14 10 -22 5 -11 -6
-11 -4 0 10 11 13 16 14 22 4 5 -7 9 -17 9 -23z m-1565 -15 c3 -6 -1 -7 -9 -4
-18 7 -21 14 -7 14 6 0 13 -4 16 -10z m1480 -29 c-3 -6 -11 -11 -17 -11 -6 0
-6 6 2 15 14 17 26 13 15 -4z m-90 -53 c4 4 2 -3 -6 -15 -7 -12 -15 -20 -18
-18 -2 3 -10 0 -18 -6 -9 -9 -13 -8 -13 0 0 6 5 11 10 11 6 0 9 3 9 8 -4 25 2
34 14 23 8 -6 17 -7 22 -3z m-310 -107 c3 -5 1 -12 -5 -16 -5 -3 -10 1 -10 9
0 18 6 21 15 7z m-565 -11 c0 -5 -4 -10 -9 -10 -6 0 -13 5 -16 10 -3 6 1 10 9
10 9 0 16 -4 16 -10z"/>
<path d="M1199 1552 c9 -7 10 -11 2 -15 -7 -4 -8 -5 0 -3 15 2 13 20 -3 24
-10 3 -10 2 1 -6z"/>
<path d="M1500 1243 c0 -6 7 -16 15 -23 12 -10 13 -16 3 -28 -9 -10 -9 -13 -1
-9 6 4 14 1 17 -5 2 -7 4 -4 3 7 -3 22 -37 77 -37 58z"/>
<path d="M1027 1500 c-8 -11 -17 -17 -21 -13 -4 4 -4 -1 0 -10 3 -10 7 -17 8
-15 1 2 10 15 19 31 20 31 15 37 -6 7z"/>
<path d="M1375 2261 c-11 -9 -22 -23 -23 -31 -10 -40 -10 -50 -2 -45 5 3 10
-5 12 -17 2 -15 11 -24 26 -26 12 -2 22 0 23 5 4 42 8 53 22 67 20 20 14 40
-16 53 -18 8 -27 7 -42 -6z"/>
<path d="M1428 2173 c0 -10 0 -28 1 -39 1 -12 -6 -24 -14 -28 -19 -7 -11 -26
11 -26 8 0 14 9 14 20 0 11 7 20 15 20 18 0 19 9 5 44 -11 30 -29 34 -32 9z"/>
<path d="M1764 2169 c-3 -6 -1 -16 5 -22 9 -9 14 -8 21 3 9 15 4 30 -10 30 -5
0 -12 -5 -16 -11z"/>
<path d="M1806 2158 c-7 -27 16 -53 38 -45 10 4 16 18 16 37 0 25 -4 30 -24
30 -16 0 -26 -7 -30 -22z"/>
<path d="M1555 2130 c-4 -7 0 -19 9 -28 13 -13 20 -14 34 -6 9 6 17 17 17 25
0 17 -50 24 -60 9z"/>
<path d="M1694 2075 c-8 -19 2 -45 16 -45 12 0 30 41 23 53 -7 13 -33 8 -39
-8z"/>
<path d="M1565 1990 c-8 -14 3 -30 21 -30 8 0 14 9 14 20 0 21 -24 28 -35 10z"/>
<path d="M1434 1848 c5 -25 41 -78 54 -78 20 0 27 31 11 44 -9 6 -18 19 -22
29 -7 19 -47 24 -43 5z"/>
<path d="M2166 1763 c-6 -14 -5 -15 5 -6 7 7 10 15 7 18 -3 3 -9 -2 -12 -12z"/>
<path d="M2040 1734 c0 -8 -4 -13 -9 -10 -12 8 -34 -21 -26 -34 9 -14 45 -13
45 3 0 6 3 22 6 35 4 13 2 22 -5 22 -6 0 -11 -7 -11 -16z"/>
<path d="M2075 1730 c-22 -25 -13 -50 19 -50 30 0 40 14 32 46 -8 29 -27 31
-51 4z"/>
<path d="M2426 1101 c-4 -5 -3 -16 0 -25 4 -11 1 -14 -14 -11 -18 3 -22 -8
-12 -35 1 -3 2 -9 1 -13 -1 -5 3 -6 9 -2 8 5 8 11 1 19 -6 7 -8 16 -4 20 4 4
12 -3 18 -15 10 -18 12 -15 11 25 -1 49 -2 51 -10 37z"/>
<path d="M2115 450 c-3 -5 -1 -10 4 -10 6 0 11 5 11 10 0 6 -2 10 -4 10 -3 0
-8 -4 -11 -10z"/>
<path d="M1999 323 c-13 -16 -12 -17 4 -4 16 13 21 21 13 21 -2 0 -10 -8 -17
-17z"/>
<path d="M1899 243 c-13 -16 -12 -17 4 -4 16 13 21 21 13 21 -2 0 -10 -8 -17
-17z"/>
<path d="M586 165 c4 -8 11 -15 16 -15 6 0 5 6 -2 15 -7 8 -14 15 -16 15 -2 0
-1 -7 2 -15z"/>
<path d="M552 161 c-11 -6 -10 -10 4 -15 20 -8 32 0 18 14 -5 5 -15 5 -22 1z"/>
<path d="M1716 131 c-4 -5 -2 -12 3 -15 5 -4 12 -2 15 3 4 5 2 12 -3 15 -5 4
-12 2 -15 -3z"/>
<path d="M1600 80 c-9 -6 -10 -10 -3 -10 6 0 15 5 18 10 8 12 4 12 -15 0z"/>
<path d="M876 51 c-3 -5 6 -8 20 -8 19 0 22 2 13 8 -18 11 -26 11 -33 0z"/>
<path d="M971 17 c-11 -18 -11 -20 0 -9 7 6 17 12 22 12 4 0 5 -6 1 -12 -6
-10 -4 -10 7 -1 15 15 33 18 25 5 -3 -5 1 -9 9 -9 18 0 20 16 3 19 -7 0 -17 2
-23 2 -5 1 -15 4 -20 8 -6 4 -17 -3 -24 -15z"/>
<path d="M1396 17 c-16 -12 -16 -14 -3 -14 9 0 18 6 21 14 7 16 4 16 -18 0z"/>
<path d="M1060 9 c0 -5 5 -7 10 -4 6 3 10 8 10 11 0 2 -4 4 -10 4 -5 0 -10 -5
-10 -11z"/>
<path d="M1235 10 c3 -5 8 -10 11 -10 2 0 4 5 4 10 0 6 -5 10 -11 10 -5 0 -7
-4 -4 -10z"/>
</g>
</svg>
